<svg version="1.1" id="Layer_1" xmlns="http://www.w3.org/2000/svg" xmlns:xlink="http://www.w3.org/1999/xlink" x="0px" y="0px"
	 width="100%" viewBox="0 0 320 90" enable-background="new 0 0 320 90" xml:space="preserve">
<path fill="#FFFFFF" opacity="1.000000" stroke="none" 
	d="
M117.230553,90.705475 
	C79.562233,91.000000 42.124275,90.947853 4.687059,91.091507 
	C1.425038,91.104027 0.916420,90.180275 0.929423,87.198853 
	C1.049163,59.745010 1.042962,32.290268 0.936715,4.836320 
	C0.925502,1.938835 1.297605,0.858044 4.652704,0.898677 
	C22.453827,1.114265 40.258949,1.000000 58.531342,1.000000 
	C61.822121,4.856617 65.928818,8.047601 65.283394,13.887669 
	C59.327591,13.531673 54.044830,11.014683 48.033401,11.191747 
	C31.558954,11.676998 17.410299,24.518793 15.456846,41.419937 
	C13.640922,57.131199 24.986412,73.866562 40.531551,77.091293 
	C63.680553,81.893394 79.812164,67.316048 82.612221,46.823589 
	C82.836441,45.182560 82.605972,43.487408 83.337334,41.541351 
	C85.834618,39.453449 86.780762,41.411800 87.728561,42.884766 
	C96.855354,57.068592 106.720451,70.759911 115.781883,84.985970 
	C116.822128,86.619118 118.305580,88.170349 117.230553,90.705475 
z"/>
<path fill="#EFE2D7" opacity="1.000000" stroke="none" 
	d="
M320.745728,89.748573 
	C320.625977,92.150581 318.975739,90.931114 318.037231,90.937187 
	C304.004364,91.028008 289.970764,91.000000 275.468658,91.000000 
	C267.107391,80.091476 260.174164,68.537399 252.407822,57.539402 
	C240.712952,40.978123 229.874268,23.837019 218.554718,7.020580 
	C217.467010,5.404655 216.090164,3.803489 216.778549,1.288142 
	C231.020889,1.000000 245.041794,1.000000 259.531342,1.000000 
	C265.272675,6.211789 268.362671,12.968553 272.517303,18.961195 
	C286.159760,38.639008 299.299774,58.664265 312.996826,78.308098 
	C315.565796,81.992455 317.642365,86.003181 320.745728,89.748573 
z"/>
<path fill="#F2E7DD" opacity="1.000000" stroke="none" 
	d="
M216.531342,1.000000 
	C219.166992,7.776189 224.047424,12.899303 227.872070,18.646263 
	C243.273483,41.788555 258.819061,64.834908 274.277802,87.939163 
	C274.709137,88.583786 274.761932,89.481697 274.995605,90.630753 
	C262.979095,91.000000 250.958206,91.000000 238.468658,91.000000 
	C227.781158,76.071861 218.044693,60.816921 207.646759,46.011723 
	C200.108887,35.278854 193.264206,24.084183 185.643539,13.401784 
	C183.169968,9.934426 179.370529,6.727240 180.767273,1.281365 
	C192.687561,1.000000 204.375122,1.000000 216.531342,1.000000 
z"/>
<path fill="#EEE0D4" opacity="1.000000" stroke="none" 
	d="
M321.000000,89.531342 
	C319.088165,89.951462 318.077881,88.661453 317.118622,87.245132 
	C303.188446,66.678185 289.190948,46.156551 275.339783,25.536592 
	C270.080109,17.706625 265.151733,9.654105 260.036163,1.351514 
	C276.020905,1.000000 292.041779,1.000000 308.531342,1.000000 
	C316.692322,2.854552 319.516998,5.644060 320.776917,12.704973 
	C321.000000,38.354229 321.000000,63.708454 321.000000,89.531342 
z"/>
<path fill="#F4EBE3" opacity="1.000000" stroke="none" 
	d="
M180.531342,1.000000 
	C181.327499,7.081089 185.687515,11.003257 188.786255,15.613886 
	C202.571915,36.125622 216.355453,56.638954 230.066513,77.200546 
	C232.889084,81.433380 236.639343,85.125282 237.995361,90.628845 
	C229.979095,91.000000 221.958191,91.000000 213.468643,91.000000 
	C206.118408,81.820656 200.131668,72.031868 193.676010,62.562290 
	C182.625641,46.352959 171.817673,29.979404 160.685440,13.823651 
	C158.102142,10.074604 154.728088,6.588328 154.778442,1.288412 
	C163.354233,1.000000 171.708466,1.000000 180.531342,1.000000 
z"/>
<path fill="#F5EDE6" opacity="1.000000" stroke="none" 
	d="
M154.532059,1.000000 
	C156.512100,6.569916 160.184830,10.910616 163.314575,15.552787 
	C174.778046,32.555748 186.305328,49.515789 197.732407,66.543121 
	C202.968750,74.345741 208.769882,81.793152 212.964478,90.643646 
	C207.311966,91.000000 201.623917,91.000000 195.467941,91.000000 
	C190.266876,84.784019 186.170685,78.125504 181.833359,71.645233 
	C169.724258,53.553303 157.493088,35.545330 145.236053,17.554342 
	C142.705826,13.840432 140.544693,9.898235 138.033264,6.173500 
	C137.113647,4.809614 136.121399,3.404871 136.778503,1.288316 
	C142.688034,1.000000 148.376083,1.000000 154.532059,1.000000 
z"/>
<path fill="#F7F0EA" opacity="1.000000" stroke="none" 
	d="
M136.532394,1.000000 
	C140.384048,8.970318 145.639023,15.796119 150.420700,22.909351 
	C160.834869,38.401474 171.303787,53.856930 181.679260,69.374878 
	C186.265335,76.233963 191.668213,82.582626 194.963837,90.642120 
	C189.645065,91.000000 184.290146,91.000000 178.467606,91.000000 
	C171.956406,83.450447 167.100174,75.082275 161.727905,67.079292 
	C148.457230,47.310253 134.962280,27.692471 121.806801,7.846647 
	C120.568497,5.978583 118.631790,4.254714 119.771591,1.283133 
	C125.354927,1.000000 130.709854,1.000000 136.532394,1.000000 
z"/>
<path fill="#F8F3EE" opacity="1.000000" stroke="none" 
	d="
M119.533882,1.000000 
	C119.639885,3.049237 120.961823,4.440459 121.971306,5.930900 
	C136.451019,27.309258 151.052521,48.606350 165.366135,70.095230 
	C169.754333,76.683189 174.557205,83.052994 177.964661,90.644485 
	C173.310745,91.000000 168.621490,91.000000 163.466125,91.000000 
	C157.980591,86.247368 155.093475,79.962128 151.242706,74.386154 
	C137.193100,54.042126 123.535263,33.429482 109.948990,12.771850 
	C107.657242,9.287298 103.674980,6.586584 104.770836,1.283354 
	C109.689255,1.000000 114.378510,1.000000 119.533882,1.000000 
z"/>
<path fill="#FBF8F6" opacity="1.000000" stroke="none" 
	d="
M148.221497,90.711861 
	C143.310745,91.000000 138.621490,91.000000 133.466125,91.000000 
	C128.069901,86.393349 125.238739,80.268700 121.536423,74.804092 
	C106.649261,52.830688 91.761711,30.855761 77.068153,8.751492 
	C75.647476,6.614290 73.550865,4.600465 74.770859,1.283029 
	C79.689255,1.000000 84.378510,1.000000 89.533882,1.000000 
	C108.450623,28.837189 127.152649,56.505341 145.870789,84.162842 
	C147.140915,86.039551 148.899841,87.800629 148.221497,90.711861 
z"/>
<path fill="#FAF5F2" opacity="1.000000" stroke="none" 
	d="
M148.466125,91.000000 
	C147.361465,87.030556 144.500488,84.263412 142.420670,81.142441 
	C129.117508,61.179626 115.653595,41.323864 102.228653,21.442286 
	C98.894333,16.504362 95.527565,11.588024 92.135567,6.689568 
	C91.085175,5.172671 90.052208,3.682635 90.004944,1.373904 
	C94.689255,1.000000 99.378510,1.000000 104.533882,1.000000 
	C104.870773,6.802994 109.578705,10.099797 112.310951,14.251048 
	C126.322212,35.539108 140.806549,56.515366 155.058594,77.645760 
	C157.833923,81.760544 160.312531,86.075485 162.964005,90.649048 
	C158.310745,91.000000 153.621490,91.000000 148.466125,91.000000 
z"/>
<path fill="#FDFBFA" opacity="1.000000" stroke="none" 
	d="
M74.533142,1.000000 
	C74.846146,3.126382 75.839333,4.812871 76.980568,6.496470 
	C93.138397,30.333223 109.298996,54.168205 125.391266,78.049202 
	C128.067932,82.021370 130.423843,86.209679 132.963989,90.649055 
	C127.977905,91.000000 122.955818,91.000000 117.466858,91.000000 
	C117.063545,89.636337 116.675896,88.486320 115.886963,87.303764 
	C105.726067,72.073135 95.630089,56.799202 85.497734,41.549484 
	C85.341072,41.313709 84.932442,41.245350 84.294052,41.052910 
	C82.906624,41.210346 82.321136,40.555836 82.181122,39.734856 
	C80.316154,28.799809 74.030434,20.878656 65.102203,14.311737 
	C65.057922,8.891003 60.188339,6.208639 59.035381,1.355717 
	C64.022095,1.000000 69.044182,1.000000 74.533142,1.000000 
z"/>
<path fill="#FEFEFD" opacity="1.000000" stroke="none" 
	d="
M321.000000,12.520824 
	C318.552002,7.756372 315.383240,3.240450 309.213776,1.269220 
	C309.326843,1.000000 309.653656,1.000000 309.980499,1.000000 
	C313.575653,1.000000 318.801514,-0.415047 320.345795,1.364599 
	C322.201202,3.502788 320.921997,8.361099 321.000000,12.520824 
z"/>
<path fill="#EFDFD3" opacity="1.000000" stroke="none" 
	d="
M64.663635,13.827326 
	C75.946754,19.459003 81.502220,28.705904 83.679932,40.745243 
	C84.351685,56.751801 78.170799,69.038269 63.827343,75.949112 
	C43.240231,85.868248 19.397291,73.622391 14.820097,51.601032 
	C9.736859,27.145035 32.387562,4.424685 57.912231,11.039473 
	C60.132557,11.614876 62.195965,12.795786 64.663635,13.827326 
z"/>
<path fill="#2D2826" opacity="1.000000" stroke="none" 
	d="
M55.774647,41.408936 
	C57.816868,40.251896 58.805031,38.399422 60.957642,37.892563 
	C64.813034,36.984760 67.945175,37.703308 69.936111,41.298870 
	C71.899055,44.843903 71.192024,48.168037 68.236786,50.770588 
	C65.210304,53.435879 61.913189,53.289532 58.639633,50.938225 
	C57.515934,50.131100 56.761791,47.956947 55.203812,48.773571 
	C53.348232,49.746193 51.541702,51.313343 54.174675,53.731995 
	C57.542046,56.825264 56.932144,60.712315 55.004929,64.083145 
	C53.004200,67.582573 48.132156,68.082481 44.866005,65.717140 
	C41.328526,63.155300 40.720455,58.404228 43.336510,54.610733 
	C44.129997,53.460114 46.358974,52.738121 45.542988,51.148285 
	C44.475647,49.068729 43.121643,47.584831 40.352013,50.214516 
	C35.741276,54.592270 29.136164,52.683006 27.802948,46.985268 
	C27.064547,43.829586 27.560463,40.606525 30.514868,39.064236 
	C33.428383,37.543285 36.844028,36.339306 39.981781,39.222561 
	C41.254131,40.391712 42.154137,42.704510 44.621166,40.170937 
	C47.184700,37.538258 44.375774,36.823261 43.442005,35.491985 
	C40.877087,31.835190 41.137791,27.331207 44.389988,24.706936 
	C47.509933,22.189386 50.830708,22.179686 53.968990,24.703415 
	C57.000252,27.141085 57.728779,32.418587 54.873920,35.384884 
	C52.287006,38.072777 52.558975,39.701889 55.774647,41.408936 
z"/>
<path fill="#DECFC3" opacity="1.000000" stroke="none" 
	d="
M63.061348,41.497303 
	C65.653404,41.973148 67.091095,43.212048 66.663773,45.645947 
	C66.334099,47.523632 64.917641,48.365162 63.025753,48.390385 
	C60.930607,48.418308 59.036949,47.139420 58.737293,45.554546 
	C58.265221,43.057800 60.638718,42.153942 63.061348,41.497303 
z"/>
<path fill="#DFD0C5" opacity="1.000000" stroke="none" 
	d="
M46.299828,32.285759 
	C45.438690,29.708441 46.091503,27.980137 48.356869,27.259388 
	C50.184788,26.677820 51.542053,27.618849 52.319370,29.298456 
	C53.282349,31.379244 51.927757,32.694897 50.641766,33.995949 
	C48.339851,36.324818 47.745293,33.470520 46.299828,32.285759 
z"/>
<path fill="#E1D2C7" opacity="1.000000" stroke="none" 
	d="
M50.259666,55.621033 
	C51.125477,56.645527 51.879318,57.339634 52.299080,58.197262 
	C53.184387,60.006042 52.290100,61.395508 50.828678,62.391041 
	C49.634171,63.204750 48.326466,63.104828 47.186539,62.158035 
	C45.718559,60.938774 45.319912,59.285545 46.353668,57.783298 
	C47.160892,56.610245 47.752518,54.581108 50.259666,55.621033 
z"/>
<path fill="#F1E1D4" opacity="1.000000" stroke="none" 
	d="
M34.884750,41.661552 
	C37.141140,42.671375 40.169659,43.049065 38.396694,46.282883 
	C37.590546,47.753269 36.036678,48.606167 34.142971,48.146370 
	C32.882927,47.840431 32.107769,47.012527 31.862488,45.787598 
	C31.430334,43.629436 32.441864,42.310085 34.884750,41.661552 
z"/>
<path fill="#E8D9CD" opacity="1.000000" stroke="none" 
	d="
M49.154961,41.970993 
	C50.474319,43.073910 52.713104,43.583138 51.905613,45.639717 
	C51.525894,46.606812 50.466583,47.652584 49.495422,47.953663 
	C48.306705,48.322182 47.458569,47.007763 46.823410,46.119957 
	C45.097927,43.708118 47.877327,43.291786 49.154961,41.970993 
z"/>
</svg>